<?xml version="1.0" encoding="UTF-8"?>
<svg version="1.1" xmlns="http://www.w3.org/2000/svg" width="267" height="267">
<path d="M0 0 C1.19375244 0.71917603 1.19375244 0.71917603 2.41162109 1.45288086 C3.33241455 1.99976563 4.25320801 2.54665039 5.2019043 3.11010742 C6.18634521 3.70662109 7.17078613 4.30313477 8.18505859 4.91772461 C10.31571495 6.18608749 12.447265 7.45294999 14.57958984 8.71850586 C15.70445801 9.38833496 16.82932617 10.05816406 17.98828125 10.74829102 C24.23565119 14.44898445 30.55960871 18.01803638 36.87255859 21.60522461 C39.24432454 22.95301135 41.6153188 24.30212112 43.98583984 25.65209961 C44.99042236 26.22283203 45.99500488 26.79356445 47.0300293 27.3815918 C48.91104739 28.47720361 50.7488255 29.64773588 52.56005859 30.85522461 C52.92082214 33.06985474 52.92082214 33.06985474 52.90063477 35.85571289 C52.90040817 36.89664093 52.90018158 37.93756897 52.89994812 39.01004028 C52.88446426 40.13715424 52.86898041 41.26426819 52.85302734 42.42553711 C52.8487825 43.57690155 52.84453766 44.72826599 52.84016418 45.91452026 C52.82332912 49.60332315 52.78566734 53.29158597 52.74755859 56.98022461 C52.73251803 59.47631049 52.71882854 61.9724049 52.70654297 64.46850586 C52.67340979 70.59759736 52.62316249 76.72637241 52.56005859 82.85522461 C48.5343119 82.96831441 46.45201612 82.53846114 42.99755859 80.41772461 C40.17730744 78.70211256 37.81014621 77.49639836 34.56005859 76.85522461 C34.56005859 76.19522461 34.56005859 75.53522461 34.56005859 74.85522461 C33.30322266 74.4878418 33.30322266 74.4878418 32.02099609 74.11303711 C28.11579012 72.69376361 24.75034588 70.83664695 21.18505859 68.73022461 C20.54439453 68.35768555 19.90373047 67.98514648 19.24365234 67.60131836 C17.67957382 66.69088459 16.11940326 65.7737427 14.56005859 64.85522461 C14.56005859 66.83522461 14.56005859 68.81522461 14.56005859 70.85522461 C15.28483398 71.12818359 16.00960937 71.40114258 16.75634766 71.68237305 C19.47301053 72.81881057 21.88939975 74.11873521 24.41943359 75.62084961 C25.35779053 76.17417969 26.29614746 76.72750977 27.26293945 77.29760742 C28.77126343 78.19237793 28.77126343 78.19237793 30.31005859 79.10522461 C38.98242173 84.21106596 47.70322041 89.21249993 56.49755859 94.10522461 C63.78618271 98.16581176 71.05420757 102.25270077 78.24755859 106.48022461 C78.91198975 106.86984375 79.5764209 107.25946289 80.26098633 107.66088867 C82.0375377 108.7120477 83.80817491 109.76333998 85.56005859 110.85522461 C87.08106422 111.66795334 87.08106422 111.66795334 88.63279724 112.49710083 C91.56005859 114.85522461 91.56005859 114.85522461 92.28158569 117.99371338 C92.26826202 119.22837341 92.25493835 120.46303345 92.24121094 121.73510742 C92.24252518 122.76010849 92.24252518 122.76010849 92.24386597 123.80581665 C92.23969538 126.05783627 92.19307979 128.30685263 92.14599609 130.55834961 C92.13480179 132.12203341 92.1262627 133.6857383 92.12026978 135.24945068 C92.09738907 139.35996876 92.0384748 143.4692094 91.9720459 147.57922363 C91.8997986 152.5132609 91.87231346 157.44772599 91.83732605 162.38214111 C91.77919221 169.87405667 91.66422206 177.36317095 91.56005859 184.85522461 C108.39005859 184.85522461 125.22005859 184.85522461 142.56005859 184.85522461 C142.23005859 187.49522461 141.90005859 190.13522461 141.56005859 192.85522461 C134.89722228 195.31250972 128.47395934 195.11820244 121.43505859 195.04272461 C120.19401367 195.03700439 118.95296875 195.03128418 117.67431641 195.02539062 C109.35659507 194.96062587 101.07705202 194.63767769 92.77539062 194.14111328 C85.92170964 193.76985526 79.25155083 194.09533373 72.41943359 194.69897461 C71.47583984 194.75053711 70.53224609 194.80209961 69.56005859 194.85522461 C68.56005859 193.85522461 68.56005859 193.85522461 68.53642273 191.34806824 C68.58120255 190.23176529 68.62598236 189.11546234 68.67211914 187.96533203 C68.71672775 186.70279099 68.76133636 185.44024994 68.80729675 184.13945007 C68.83143332 183.45935064 68.85556988 182.77925121 68.88043785 182.07854271 C69.01727086 177.71022916 69.06592954 173.33996129 69.12301922 168.96999645 C69.17797027 165.13514564 69.26853528 161.30805607 69.44116211 157.4765625 C70.77189327 141.17937057 70.77189327 141.17937057 65.74081421 126.37734985 C61.11504577 122.30253801 55.83806579 119.9980232 50.10934448 117.85604858 C46.49073179 116.43541767 43.3141295 114.48612205 40.02490234 112.43725586 C37.85013627 111.1789892 35.67438912 109.92241634 33.49755859 108.66772461 C32.37285156 108.01481445 31.24814453 107.3619043 30.08935547 106.68920898 C29.01621094 106.06981445 27.94306641 105.45041992 26.83740234 104.81225586 C25.8911499 104.26545166 24.94489746 103.71864746 23.9699707 103.15527344 C21.52915214 101.74930988 21.52915214 101.74930988 18.56005859 100.85522461 C18.56005859 100.19522461 18.56005859 99.53522461 18.56005859 98.85522461 C13.76884175 97.53350962 11.01624236 97.20923478 6.40771484 99.25366211 C3.41073483 100.99074331 0.46179697 102.77400126 -2.46630859 104.62329102 C-5.96918547 106.80977255 -9.54502638 108.86515928 -13.12744141 110.91772461 C-13.8107251 111.32361816 -14.49400879 111.72951172 -15.19799805 112.14770508 C-16.90230802 113.12900693 -18.66812771 114.00181848 -20.43994141 114.85522461 C-21.92494141 114.36022461 -21.92494141 114.36022461 -23.43994141 113.85522461 C-23.43994141 90.75522461 -23.43994141 67.65522461 -23.43994141 43.85522461 C-32.34994141 48.80522461 -32.34994141 48.80522461 -41.43994141 53.85522461 C-42.92494141 54.35022461 -42.92494141 54.35022461 -44.43994141 54.85522461 C-44.43901961 55.56974981 -44.43809782 56.28427502 -44.43714809 57.0204525 C-44.41508641 74.38751548 -44.39852669 91.7545749 -44.38812923 109.12164879 C-44.38296776 117.52015053 -44.37592789 125.91864293 -44.36450195 134.31713867 C-44.35455058 141.63524813 -44.34808689 148.95335082 -44.34585291 156.27146685 C-44.34454658 160.14816349 -44.34146558 164.02484077 -44.33421135 167.90153122 C-44.327444 171.54743092 -44.32532591 175.19330322 -44.32683372 178.8392086 C-44.32642573 180.8212303 -44.32103423 182.80324899 -44.31552124 184.78526306 C-44.3168959 185.9575798 -44.31827057 187.12989655 -44.31968689 188.33773804 C-44.3187651 189.36092825 -44.3178433 190.38411846 -44.31689358 191.43831444 C-44.43994141 193.85522461 -44.43994141 193.85522461 -45.43994141 195.85522461 C-54.51499158 195.87837994 -63.59003161 195.89615601 -72.66510487 195.90703678 C-76.87887934 195.91225861 -81.09263363 195.9193436 -85.30639648 195.93066406 C-89.37178941 195.94151776 -93.4371629 195.94750673 -97.5025692 195.95010185 C-99.05472812 195.95195161 -100.60688597 195.95556365 -102.15903664 195.96095467 C-104.33057593 195.96819801 -106.50203458 195.96921415 -108.67358398 195.96875 C-110.52890495 195.97208092 -110.52890495 195.97208092 -112.42170715 195.97547913 C-115.43994141 195.85522461 -115.43994141 195.85522461 -118.43994141 194.85522461 C-118.43994141 191.22522461 -118.43994141 187.59522461 -118.43994141 183.85522461 C-101.60994141 183.85522461 -84.77994141 183.85522461 -67.43994141 183.85522461 C-67.58657227 179.33971924 -67.73320313 174.82421387 -67.88427734 170.171875 C-68.34936268 155.2101372 -68.65936733 140.24810371 -68.89068222 125.28101444 C-69.03462505 116.20994289 -69.23047675 107.14575163 -69.55224609 98.07910156 C-69.83284874 90.16859998 -70.01229251 82.26307769 -70.07441926 74.34773821 C-70.1107204 70.15968416 -70.19472577 65.98585899 -70.400383 61.80241585 C-71.57170314 37.03124478 -71.57170314 37.03124478 -66.17835689 30.27478814 C-59.62002403 23.75911215 -51.07455688 19.88590906 -42.68879509 16.28116226 C-38.63204549 14.50063517 -34.9362784 12.33662259 -31.19384766 9.98413086 C-29.13191224 8.79209403 -27.06825513 7.60302756 -25.00244141 6.41772461 C-23.93058594 5.79575195 -22.85873047 5.1737793 -21.75439453 4.53295898 C-20.72378906 3.9393457 -19.69318359 3.34573242 -18.63134766 2.73413086 C-17.3040564 1.96951538 -17.3040564 1.96951538 -15.94995117 1.18945312 C-10.0364411 -1.95395049 -6.33730643 -2.97334699 0 0 Z " fill="#664321" transform="translate(124.43994140625,5.144775390625)"/>
<path d="M0 0 C2.63510844 1.42883296 5.12837284 3.03055682 7.625 4.6875 C14.5660383 9.25019081 21.62349478 13.02803565 29 17 C29 34.82 29 52.64 29 71 C17.74760266 72.12523973 17.74760266 72.12523973 12.37280273 72.03759766 C11.17554062 72.02072906 9.9782785 72.00386047 8.74473572 71.98648071 C7.48705887 71.9625827 6.22938202 71.93868469 4.93359375 71.9140625 C2.96073143 71.88220352 2.96073143 71.88220352 0.94801331 71.84970093 C-1.81281342 71.80457285 -4.57352775 71.75538064 -7.33422852 71.703125 C-10.87835634 71.63631663 -14.42256377 71.57926837 -17.96690464 71.52509499 C-21.3543282 71.47214844 -24.74160052 71.41158366 -28.12890625 71.3515625 C-30.04274864 71.32178818 -30.04274864 71.32178818 -31.99525452 71.29141235 C-33.16414719 71.26823944 -34.33303986 71.24506653 -35.53735352 71.22119141 C-36.57086441 71.20263092 -37.60437531 71.18407043 -38.66920471 71.16494751 C-41 71 -41 71 -42 70 C-42.09346915 68.34261557 -42.11744977 66.68125356 -42.11352539 65.02124023 C-42.11344986 63.96021591 -42.11337433 62.89919159 -42.11329651 61.80601501 C-42.10813522 60.651866 -42.10297394 59.49771698 -42.09765625 58.30859375 C-42.0962413 57.13361832 -42.09482635 55.95864288 -42.09336853 54.74806213 C-42.08774992 50.97784936 -42.07519426 47.20769496 -42.0625 43.4375 C-42.0574874 40.88867273 -42.05292408 38.33984453 -42.04882812 35.79101562 C-42.03777444 29.52732367 -42.02101821 23.26366601 -42 17 C-38.66452186 15.09034235 -35.32840847 13.18179707 -31.9921875 11.2734375 C-30.58876099 10.46990845 -30.58876099 10.46990845 -29.15698242 9.65014648 C-7.18686439 -2.9138048 -7.18686439 -2.9138048 0 0 Z M-11.875 24.6875 C-14.51064564 27.44127868 -14.51064564 27.44127868 -15 31 C-13.70855022 33.99992729 -13.70855022 33.99992729 -12 37 C-9.72048825 41.36470446 -10.10031795 43.86142904 -11.375 48.5625 C-12.367552 52.29535863 -13 55.11078428 -13 59 C-8.38 59 -3.76 59 1 59 C2.58750326 54.23749023 0.28544129 50.27714935 -1.28515625 45.640625 C-2.11493358 41.41465519 -1.51773737 38.98719125 0 35 C0.33 34.67 0.66 34.34 1 34 C1.04092937 31.66702567 1.04241723 29.33294775 1 27 C0.34 27 -0.32 27 -1 27 C-1.33 26.01 -1.66 25.02 -2 24 C-7.13228498 22.76679881 -7.13228498 22.76679881 -11.875 24.6875 Z " fill="#664321" transform="translate(143,129)"/>
<path d="M0 0 C0.79855185 0.00037972 1.59710371 0.00075944 2.4198541 0.00115067 C3.33797819 -0.00084038 4.25610227 -0.00283143 5.2020483 -0.00488281 C6.73265814 -0.00051355 6.73265814 -0.00051355 8.29418939 0.00394398 C9.36901809 0.00308955 10.44384678 0.00223513 11.55124605 0.00135481 C15.18269432 -0.00030317 18.81409724 0.00522658 22.44554132 0.01067311 C25.03678887 0.01095493 27.6280365 0.01079733 30.219284 0.0102306 C35.81342604 0.00970518 41.40755646 0.01285384 47.00169557 0.01846844 C55.08997088 0.02658103 63.17824054 0.02919841 71.26651948 0.03045643 C84.38788282 0.03264733 97.50923995 0.03930844 110.63059992 0.04875904 C123.37994856 0.05793218 136.12929552 0.06501349 148.87864679 0.06926686 C149.6639639 0.06952958 150.44928102 0.0697923 151.25839562 0.07006299 C155.19793571 0.07136799 159.13747582 0.0726317 163.07701594 0.07387489 C195.78116112 0.08424868 228.48529853 0.10194214 261.18943781 0.1241985 C261.18943781 3.0941985 261.18943781 6.0641985 261.18943781 9.1241985 C227.84623495 9.16978549 194.50304073 9.20519809 161.15981365 9.22632916 C157.22681722 9.22883069 153.29382086 9.23141932 149.36082453 9.23406178 C148.18629985 9.23484871 148.18629985 9.23484871 146.98804741 9.23565154 C134.29559752 9.24436339 121.60316567 9.26013763 108.9107265 9.27850409 C95.89523514 9.29718148 82.87975326 9.30831063 69.86424905 9.31237549 C61.82756555 9.31512504 53.79093304 9.32382134 45.75426523 9.34003143 C39.60044412 9.35181443 33.44666221 9.35311532 27.29283136 9.35041386 C24.76195327 9.35096655 22.23107334 9.35497722 19.7002067 9.36260945 C16.25889182 9.37248293 12.81779951 9.3701953 9.37648004 9.36470753 C8.36287727 9.37053321 7.3492745 9.3763589 6.3049565 9.38236111 C5.38832476 9.37837902 4.47169302 9.37439692 3.52728456 9.37029415 C2.73215019 9.37105359 1.93701582 9.37181304 1.11778647 9.37259549 C-0.81056219 9.1241985 -0.81056219 9.1241985 -2.81056219 7.1241985 C-2.99806219 4.0616985 -2.99806219 4.0616985 -2.81056219 1.1241985 C-1.81056219 0.1241985 -1.81056219 0.1241985 0 0 Z " fill="#664321" transform="translate(5.810562193393707,254.8758015036583)"/>
<path d="M0 0 C1.16273438 -0.04898438 2.32546875 -0.09796875 3.5234375 -0.1484375 C6.625 0.375 6.625 0.375 8.37109375 2.53515625 C8.78488281 3.47230469 9.19867188 4.40945312 9.625 5.375 C10.08261719 6.33019531 10.54023438 7.28539062 11.01171875 8.26953125 C12.21614583 10.97135417 13.42057292 13.67317708 14.625 16.375 C17.265 11.095 19.905 5.815 22.625 0.375 C32.68359375 0.27734375 32.68359375 0.27734375 35.625 0.375 C37.54757175 2.29757175 36.75408424 5.15585108 36.76394653 7.71374512 C36.7619223 8.60227173 36.75989807 9.49079834 36.7578125 10.40625 C36.75876923 11.31250122 36.75972595 12.21875244 36.76071167 13.15246582 C36.76139353 15.07251047 36.75953882 16.99255741 36.75537109 18.91259766 C36.75002292 21.86235704 36.75531588 24.81196414 36.76171875 27.76171875 C36.76105797 29.62239617 36.75977681 31.4830735 36.7578125 33.34375 C36.75983673 34.23227661 36.76186096 35.12080322 36.76394653 36.03625488 C36.73994988 42.26005012 36.73994988 42.26005012 35.625 43.375 C31.62279347 43.51855117 27.63058317 43.41716403 23.625 43.375 C23.295 38.755 22.965 34.135 22.625 29.375 C22.0475 30.674375 21.47 31.97375 20.875 33.3125 C19.17055256 37.14750674 19.17055256 37.14750674 16.6484375 38.19921875 C13.50840858 38.47200119 12.05068576 37.29001507 9.625 35.375 C8.90370678 33.73123654 8.22909338 32.06535304 7.625 30.375 C7.56441406 31.22964844 7.50382813 32.08429688 7.44140625 32.96484375 C7.35761719 34.06957031 7.27382812 35.17429688 7.1875 36.3125 C7.10628906 37.41464844 7.02507812 38.51679688 6.94140625 39.65234375 C6.625 42.375 6.625 42.375 5.625 43.375 C3.62700428 43.47373816 1.62542842 43.50471799 -0.375 43.5 C-1.468125 43.50257813 -2.56125 43.50515625 -3.6875 43.5078125 C-6.375 43.375 -6.375 43.375 -7.375 42.375 C-7.476137 39.35691937 -7.51468909 36.36219487 -7.5078125 33.34375 C-7.50876923 32.43749878 -7.50972595 31.53124756 -7.51071167 30.59753418 C-7.51139353 28.67748953 -7.50953882 26.75744259 -7.50537109 24.83740234 C-7.50002292 21.88764296 -7.50531588 18.93803586 -7.51171875 15.98828125 C-7.51105797 14.12760383 -7.50977681 12.2669265 -7.5078125 10.40625 C-7.50983673 9.51772339 -7.51186096 8.62919678 -7.51394653 7.71374512 C-7.48571461 0.39148563 -7.25846376 0.20830028 0 0 Z " fill="#664321" transform="translate(149.375,207.625)"/>
<path d="M0 0 C1.50046875 0.00386719 1.50046875 0.00386719 3.03125 0.0078125 C4.0315625 0.00523437 5.031875 0.00265625 6.0625 0 C8.53125 0.1328125 8.53125 0.1328125 9.53125 1.1328125 C9.60438567 3.66330652 9.62372527 6.16586087 9.59375 8.6953125 C9.58923828 9.40623047 9.58472656 10.11714844 9.58007812 10.84960938 C9.56825864 12.61071263 9.55032263 14.37177286 9.53125 16.1328125 C13.16125 16.1328125 16.79125 16.1328125 20.53125 16.1328125 C20.51964844 15.06160156 20.50804688 13.99039063 20.49609375 12.88671875 C20.48671701 11.48958507 20.47761669 10.09244951 20.46875 8.6953125 C20.46037109 7.98826172 20.45199219 7.28121094 20.44335938 6.55273438 C20.43471412 4.74587691 20.47904989 2.93893647 20.53125 1.1328125 C21.53125 0.1328125 21.53125 0.1328125 24.21875 0 C25.311875 0.00257813 26.405 0.00515625 27.53125 0.0078125 C28.624375 0.00523437 29.7175 0.00265625 30.84375 0 C33.53125 0.1328125 33.53125 0.1328125 34.53125 1.1328125 C34.632387 4.15089313 34.67093909 7.14561763 34.6640625 10.1640625 C34.66501923 11.07031372 34.66597595 11.97656494 34.66696167 12.91027832 C34.66764353 14.83032297 34.66578882 16.75036991 34.66162109 18.67041016 C34.65627292 21.62016954 34.66156588 24.56977664 34.66796875 27.51953125 C34.66730797 29.38020867 34.66602681 31.240886 34.6640625 33.1015625 C34.66608673 33.99008911 34.66811096 34.87861572 34.67019653 35.79406738 C34.64619988 42.01786262 34.64619988 42.01786262 33.53125 43.1328125 C31.53325428 43.23155066 29.53167842 43.26253049 27.53125 43.2578125 C26.438125 43.26039063 25.345 43.26296875 24.21875 43.265625 C21.53125 43.1328125 21.53125 43.1328125 20.53125 42.1328125 C20.29597227 39.78293988 20.11738583 37.42725211 19.96875 35.0703125 C19.88496094 33.77996094 19.80117188 32.48960937 19.71484375 31.16015625 C19.65425781 30.16113281 19.59367187 29.16210938 19.53125 28.1328125 C18.438125 28.1534375 17.345 28.1740625 16.21875 28.1953125 C12.53125 28.1328125 12.53125 28.1328125 9.53125 27.1328125 C9.54285156 28.20402344 9.55445313 29.27523437 9.56640625 30.37890625 C9.57578299 31.77603993 9.58488331 33.17317549 9.59375 34.5703125 C9.60212891 35.27736328 9.61050781 35.98441406 9.61914062 36.71289062 C9.62778588 38.51974809 9.58345011 40.32668853 9.53125 42.1328125 C8.53125 43.1328125 8.53125 43.1328125 6.0625 43.265625 C4.56203125 43.26175781 4.56203125 43.26175781 3.03125 43.2578125 C2.0309375 43.26039063 1.030625 43.26296875 0 43.265625 C-2.46875 43.1328125 -2.46875 43.1328125 -3.46875 42.1328125 C-3.569887 39.11473187 -3.60843909 36.12000737 -3.6015625 33.1015625 C-3.60251923 32.19531128 -3.60347595 31.28906006 -3.60446167 30.35534668 C-3.60514353 28.43530203 -3.60328882 26.51525509 -3.59912109 24.59521484 C-3.59377292 21.64545546 -3.59906588 18.69584836 -3.60546875 15.74609375 C-3.60480797 13.88541633 -3.60352681 12.024739 -3.6015625 10.1640625 C-3.60358673 9.27553589 -3.60561096 8.38700928 -3.60769653 7.47155762 C-3.57963147 0.19257511 -3.57963147 0.19257511 0 0 Z " fill="#664321" transform="translate(35.46875,207.8671875)"/>
<path d="M0 0 C5.08864316 4.50425834 9.13418125 9.07345 10 16 C10.05679905 22.25925476 8.74146286 27.90775112 5 33 C0.35880668 37.4630665 -4.7367854 40.95034525 -11.34765625 41.02734375 C-18.10203421 40.6300274 -22.87899887 39.12100113 -27.69140625 34.30859375 C-31.83349515 29.36802989 -33.71073996 24.44351668 -34 18 C-33.45466883 12.17697224 -32.00615974 6.61703754 -27.4609375 2.66015625 C-19.30551963 -3.53724279 -9.06962607 -5.55033101 0 0 Z M-19 13 C-20.53214888 16.06429776 -20.22938548 18.6165642 -20 22 C-18.56337463 25.59156343 -17.56742712 26.70395107 -14.125 28.5 C-10.99920378 29.27795019 -10.99920378 29.27795019 -8.25 27.875 C-4.50705162 24.75587635 -4.10455837 22.94102532 -3.5625 18.0625 C-3.65772957 14.66597858 -4.03233247 13.95435416 -6.125 11 C-8.85191118 8.8090905 -8.85191118 8.8090905 -12.0625 8.4375 C-15.61734581 9.11821515 -16.777046 10.20072459 -19 13 Z " fill="#664321" transform="translate(118,211)"/>
<path d="M0 0 C1.79244141 0.01740234 1.79244141 0.01740234 3.62109375 0.03515625 C5.41740234 0.04869141 5.41740234 0.04869141 7.25 0.0625 C8.17683594 0.07410156 9.10367188 0.08570313 10.05859375 0.09765625 C10.39632812 0.78472656 10.7340625 1.47179687 11.08203125 2.1796875 C11.52804688 3.08074219 11.9740625 3.98179687 12.43359375 4.91015625 C12.87445313 5.80347656 13.3153125 6.69679687 13.76953125 7.6171875 C15.0772628 10.24322006 15.0772628 10.24322006 17.05859375 13.09765625 C19.03859375 8.80765625 21.01859375 4.51765625 23.05859375 0.09765625 C27.34859375 0.09765625 31.63859375 0.09765625 36.05859375 0.09765625 C36.05859375 4.34379902 35.46868655 5.63835233 33.46875 9.24609375 C32.93161377 10.24568115 32.39447754 11.24526855 31.84106445 12.27514648 C30.98967896 13.85791382 30.98967896 13.85791382 30.12109375 15.47265625 C25.28180488 24.72303361 22.57919754 31.56869514 23.05859375 42.09765625 C22.05859375 43.09765625 22.05859375 43.09765625 19.58984375 43.23046875 C18.089375 43.22660156 18.089375 43.22660156 16.55859375 43.22265625 C15.55828125 43.22523438 14.55796875 43.2278125 13.52734375 43.23046875 C11.05859375 43.09765625 11.05859375 43.09765625 10.05859375 42.09765625 C10.03115582 40.09773595 10.0120032 38.09770148 9.99609375 36.09765625 C9.45353514 27.38114084 6.07975073 20.65529343 2.06445312 13.01416016 C0.680972 10.3781585 -0.62676117 7.70600129 -1.94140625 5.03515625 C-2.60586568 3.72153745 -3.27149056 2.40850089 -3.94140625 1.09765625 C-2.94140625 0.09765625 -2.94140625 0.09765625 0 0 Z " fill="#664321" transform="translate(202.94140625,207.90234375)"/>
</svg>
